<svg version="1.1" viewBox="0.0 0.0 768.0 768.0" fill="none" stroke="none" stroke-linecap="square" stroke-miterlimit="10" xmlns:xlink="http://www.w3.org/1999/xlink" xmlns="http://www.w3.org/2000/svg"><clipPath id="p.0"><path d="m0 0l768.0 0l0 768.0l-768.0 0l0 -768.0z" clip-rule="nonzero"/></clipPath><g clip-path="url(#p.0)"><path fill="#000000" fill-opacity="0.0" d="m0 0l768.0 0l0 768.0l-768.0 0z" fill-rule="evenodd"/><path fill="#000000" d="m0.26771653 384.5328l0 0c0 -212.07735 171.92265 -384.0 384.0 -384.0l0 0c101.84311 0 199.51505 40.457024 271.52896 112.471c72.01398 72.01397 112.47101 169.68585 112.47101 271.529l0 0c0 212.07736 -171.92267 384.00003 -383.99997 384.00003l0 0c-212.07736 0 -384.0 -171.92267 -384.0 -384.00003z" fill-rule="evenodd"/><path fill="#ffffff" d="m271.453 383.98816l112.59842 -112.59842l112.59845 112.59842l-112.59845 112.59842z" fill-rule="evenodd"/><path fill="#000000" fill-opacity="0.0" d="m246.8216 146.40994l374.75592 100.4252l-100.42523 374.75592l-374.7559 -100.42523z" fill-rule="evenodd"/><path stroke="#ffffff" stroke-width="16.0" stroke-linejoin="round" stroke-linecap="butt" d="m246.8216 146.40994l374.75592 100.4252l-100.42523 374.75592l-374.7559 -100.42523z" fill-rule="evenodd"/><path fill="#000000" fill-opacity="0.0" d="m383.9987 383.9357l0 -236.69292" fill-rule="evenodd"/><path stroke="#ffffff" stroke-width="16.0" stroke-linejoin="round" stroke-linecap="butt" d="m383.9987 383.9357l0 -236.69292" fill-rule="evenodd"/><path fill="#000000" fill-opacity="0.0" d="m146.42244 246.83415l374.75592 -100.425186l100.42523 374.7559l-374.75592 100.42523z" fill-rule="evenodd"/><path stroke="#ffffff" stroke-width="16.0" stroke-linejoin="round" stroke-linecap="butt" d="m146.42244 246.83415l374.75592 -100.425186l100.42523 374.7559l-374.75592 100.42523z" fill-rule="evenodd"/><path fill="#ffffff" d="m375.83072 149.66011l0 0c0 -4.609619 3.68042 -8.346466 8.220459 -8.346466l0 0c2.1802063 0 4.271118 0.879364 5.812744 2.4446259c1.5416565 1.5652618 2.4077454 3.6882172 2.4077454 5.90184l0 0c0 4.609619 -3.6804504 8.346451 -8.2204895 8.346451l0 0c-4.540039 0 -8.220459 -3.7368317 -8.220459 -8.346451z" fill-rule="evenodd"/><path fill="#000000" fill-opacity="0.0" d="m383.99738 383.93964l236.69293 0" fill-rule="evenodd"/><path stroke="#ffffff" stroke-width="16.0" stroke-linejoin="round" stroke-linecap="butt" d="m383.99738 383.93964l236.69293 0" fill-rule="evenodd"/><path fill="#ffffff" d="m618.27295 375.77167l0 0c4.609619 0 8.346497 3.68042 8.346497 8.220459l0 0c0 2.1802063 -0.87939453 4.271118 -2.444641 5.812744c-1.5652466 1.5416565 -3.6882324 2.4077148 -5.9018555 2.4077148l0 0c-4.609619 0 -8.346436 -3.68042 -8.346436 -8.220459l0 0c0 -4.540039 3.7368164 -8.220459 8.346436 -8.220459z" fill-rule="evenodd"/><path fill="#000000" fill-opacity="0.0" d="m384.05118 383.9462l0 236.6929" fill-rule="evenodd"/><path stroke="#ffffff" stroke-width="16.0" stroke-linejoin="round" stroke-linecap="butt" d="m384.05118 383.9462l0 236.6929" fill-rule="evenodd"/><path fill="#ffffff" d="m392.21915 618.2218l0 0c0 4.609619 -3.68042 8.346436 -8.220459 8.346436l0 0c-2.1802063 0 -4.271118 -0.8793335 -5.812744 -2.444641c-1.5416565 -1.5652466 -2.4077148 -3.6881714 -2.4077148 -5.9017944l0 0c0 -4.609619 3.68042 -8.346497 8.220459 -8.346497l0 0c4.540039 0 8.220459 3.7368774 8.220459 8.346497z" fill-rule="evenodd"/><path fill="#000000" fill-opacity="0.0" d="m384.04987 383.99213l-236.69292 0" fill-rule="evenodd"/><path stroke="#ffffff" stroke-width="16.0" stroke-linejoin="round" stroke-linecap="butt" d="m384.04987 383.99213l-236.69292 0" fill-rule="evenodd"/><path fill="#ffffff" d="m149.77428 392.1601l0 0c-4.609619 0 -8.346451 -3.68042 -8.346451 -8.220459l0 0c0 -2.1802063 0.87934875 -4.271118 2.4446106 -5.812744c1.5652771 -1.5416565 3.6882172 -2.4077454 5.90184 -2.4077454l0 0c4.609619 0 8.346451 3.6804504 8.346451 8.2204895l0 0c0 4.540039 -3.7368317 8.220459 -8.346451 8.220459z" fill-rule="evenodd"/><path fill="#000000" d="m335.14307 383.94095l48.881897 -48.881897l48.881897 48.881897l-48.881897 48.881897z" fill-rule="evenodd"/><path fill="#ffffff" d="m191.86615 194.91089l67.4017 -1.888794l-15.746887 55.43239l-52.914 10.078201z" fill-rule="evenodd"/><path fill="#ffffff" d="m575.6441 193.16122l1.7949829 64.05417l-52.67932 -14.9648285l-9.577637 -50.285995z" fill-rule="evenodd"/><path fill="#ffffff" d="m575.70026 572.98254l-66.98132 1.8770142l15.648682 -55.08667l52.583984 -10.01535z" fill-rule="evenodd"/><path fill="#ffffff" d="m193.64781 574.5976l-1.979599 -70.64224l58.097473 16.503998l10.562744 55.457947z" fill-rule="evenodd"/></g></svg>