<svg version="1.1" viewBox="0.0 0.0 2048.0 2048.0" fill="none" stroke="none" stroke-linecap="square" stroke-miterlimit="10" xmlns:xlink="http://www.w3.org/1999/xlink" xmlns="http://www.w3.org/2000/svg"><clipPath id="p.0"><path d="m0 0l2048.0 0l0 2048.0l-2048.0 0l0 -2048.0z" clip-rule="nonzero"/></clipPath><g clip-path="url(#p.0)"><path fill="#000000" fill-opacity="0.0" d="m0 0l2048.0 0l0 2048.0l-2048.0 0z" fill-rule="evenodd"/><path fill="#ffffff" d="m1.64042E-4 1024.0l1023.99994 -1024.0l1024.0001 1024.0l-1024.0001 1024.0z" fill-rule="evenodd"/><path fill="#000000" d="m148.11023 1024.0l875.8898 -875.8898l875.8898 875.8898l-875.8898 875.8898z" fill-rule="evenodd"/><path fill="#ffffff" d="m271.3545 1024.0l752.6456 -752.6456l752.64575 752.6456l-752.64575 752.6456z" fill-rule="evenodd"/><path fill="#000000" d="m426.80316 1024.0l597.19684 -597.19684l597.1969 597.19684l-597.1969 597.1969z" fill-rule="evenodd"/><path fill="#ff9900" d="m160.88977 1273.7139l1751.7795 0l0 342.58276l-1751.7795 0z" fill-rule="evenodd"/><path fill="#000000" d="m703.2651 1347.8389l76.296875 0q22.65625 0 33.78125 1.890625q11.140625 1.875 19.921875 7.875q8.796875 5.984375 14.65625 15.953125q5.859375 9.953125 5.859375 22.328125q0 13.40625 -7.234375 24.609375q-7.21875 11.1875 -19.59375 16.796875q17.453125 5.078125 26.828125 17.3125q9.375 12.234375 9.375 28.765625q0 13.03125 -6.0625 25.34375q-6.046875 12.296875 -16.53125 19.65625q-10.484375 7.34375 -25.84375 9.046875q-9.640625 1.03125 -46.484375 1.296875l-64.96875 0l0 -190.875zm38.546875 31.765625l0 44.140625l25.25 0q22.53125 0 28.0 -0.65625q9.890625 -1.171875 15.546875 -6.828125q5.671875 -5.671875 5.671875 -14.90625q0 -8.859375 -4.890625 -14.390625q-4.875 -5.53125 -14.515625 -6.703125q-5.71875 -0.65625 -32.9375 -0.65625l-22.125 0zm0 75.90625l0 51.046875l35.671875 0q20.828125 0 26.421875 -1.171875q8.59375 -1.5625 14.0 -7.609375q5.40625 -6.0625 5.40625 -16.21875q0 -8.59375 -4.171875 -14.578125q-4.15625 -6.0 -12.046875 -8.734375q-7.875 -2.734375 -34.171875 -2.734375l-31.109375 0zm153.89874 83.203125l0 -190.875l141.53125 0l0 32.28125l-103.0 0l0 42.328125l95.828125 0l0 32.15625l-95.828125 0l0 51.953125l106.640625 0l0 32.15625l-145.17188 0zm220.8263 0l0 -158.59375l-56.640625 0l0 -32.28125l151.6875 0l0 32.28125l-56.515625 0l0 158.59375l-38.53125 0zm272.2489 0l-41.921875 0l-16.671875 -43.359375l-76.296875 0l-15.75 43.359375l-40.890625 0l74.34375 -190.875l40.75 0l76.4375 190.875zm-70.96875 -75.515625l-26.296875 -70.828125l-25.78125 70.828125l52.078125 0z" fill-rule="nonzero"/></g></svg>