<svg version="1.1" viewBox="0.0 0.0 512.0 512.0" fill="none" stroke="none" stroke-linecap="square" stroke-miterlimit="10" xmlns:xlink="http://www.w3.org/1999/xlink" xmlns="http://www.w3.org/2000/svg"><clipPath id="p.0"><path d="m0 0l512.0 0l0 512.0l-512.0 0l0 -512.0z" clip-rule="nonzero"/></clipPath><g clip-path="url(#p.0)"><path fill="#000000" fill-opacity="0.0" d="m0 0l512.0 0l0 512.0l-512.0 0z" fill-rule="evenodd"/><path fill="#ffffff" d="m243.37677 269.27475l-189.8042 -179.76816l55.871483 140.32481l-91.84134 -28.824799l71.94243 74.33513l-89.54511 36.40985l117.097244 17.445892l-49.747284 37.167572l91.838646 34.13138l34.44084 21.997467l45.1548 0z" fill-rule="evenodd"/><path stroke="#ffffff" stroke-width="1.0" stroke-linejoin="round" stroke-linecap="butt" d="m243.37677 269.27475l-189.8042 -179.76816l55.871483 140.32481l-91.84134 -28.824799l71.94243 74.33513l-89.54511 36.40985l117.097244 17.445892l-49.747284 37.167572l91.838646 34.13138l34.44084 21.997467l45.1548 0z" fill-rule="evenodd"/><path fill="#ffffff" d="m268.62332 269.2734l189.80417 -179.76816l-55.87146 140.32481l91.84134 -28.824814l-71.942444 74.335144l89.545135 36.40985l-117.09726 17.445892l49.747284 37.167572l-91.83865 34.13138l-34.440826 21.997467l-45.154816 0z" fill-rule="evenodd"/><path stroke="#ffffff" stroke-width="1.0" stroke-linejoin="round" stroke-linecap="butt" d="m268.62332 269.2734l189.80417 -179.76816l-55.87146 140.32481l91.84134 -28.824814l-71.942444 74.335144l89.545135 36.40985l-117.09726 17.445892l49.747284 37.167572l-91.83865 34.13138l-34.440826 21.997467l-45.154816 0z" fill-rule="evenodd"/></g></svg>